<svg xmlns="http://www.w3.org/2000/svg" width="1920" height="1036" fill="none" xmlns:v="https://vecta.io/nano"><style><![CDATA[.B{stroke:#f9f9f9}.C{stroke-opacity:.06}.D{stroke-width:.878}]]></style><mask id="A" maskUnits="userSpaceOnUse" x="0" y="0" width="1921" height="1036" mask-type="alpha"><path d="M0 17.209C0 7.705 5.655 0 12.632 0H1907.37c6.97 0 12.63 7.705 12.63 17.209V1018.79c0 9.51-5.66 17.21-12.63 17.21H12.632C5.655 1036 0 1028.3 0 1018.79V17.209z" fill="#1c1c1c"/></mask><g mask="url(#A)" class="B C D"><path d="M1183.84 833.103s265.3-215.395 630.73-213.186c365.46 2.198-187.79 699.313-187.79 699.313.02-.02 30.67-39.37 30.67-39.37m-459.2-462.877s263.16-222.586 629.08-217.698c365.91 4.888-180.11 727.525-180.11 727.525.01-.02 30.25-40.81 30.25-40.81m-464.43-485.641s261.07-229.8 627.45-222.22-172.44 755.721-172.44 755.721c.01-.03 29.84-42.26 29.84-42.26m-469.48-508.611s258.97-237.015 625.84-226.745c366.88 10.275-164.79 783.916-164.79 783.916.01-.03 29.44-43.71 29.44-43.71m-475.06-530.919s256.89-244.21 624.25-231.252c367.37 12.959-157.16 812.111-157.16 812.111.01-.02 29.04-45.15 29.04-45.15m-480.61-553.256s254.82-251.43 622.71-235.785-149.54 840.321-149.54 840.321c.01-.03 28.63-46.6 28.63-46.6m-486.24-575.583s252.78-258.654 621.21-240.315c368.44 18.341-141.92 868.528-141.92 868.528.01-.02 28.23-48.04 28.23-48.04m-491.89-597.894s250.74-265.879 619.71-244.832c368.98 21.024-134.33 896.746-134.33 896.746.01-.02 27.84-49.49 27.84-49.49"/><path d="M1702.69 457.266s-439.76 134-552.97 451.444c-113.21 317.42 1212.5 148.15 1212.5 148.15l-74.69 9.05"/><path d="M1723.17 442.008s-432.1 137.119-548.01 453.211C1059.24 1211.31 2358 1030.87 2358 1030.87l-73.16 9.69"/><path d="M1743.81 424.181s-424.43 140.234-543.03 454.974c-118.61 314.735 1153.16 123.155 1153.16 123.155l-71.63 10.32"/><path d="M1764.66 406.175s-416.77 143.347-538.07 456.755 1123.5 110.669 1123.5 110.669l-70.11 10.951"/><path d="M1785.68 387.984s-409.1 146.436-533.07 458.512c-123.98 312.054 1093.83 98.188 1093.83 98.188l-68.58 11.581"/><path d="M1806.89 369.713s-401.43 149.543-528.07 460.265 1064.17 85.711 1064.17 85.711l-67.04 12.213"/><path d="M1828.93 351.93s-393.75 152.648-523.05 462.015 1034.55 73.243 1034.55 73.243l-65.52 12.842"/><path d="M1851.29 334.209s-386.08 155.751-518.02 463.762c-131.96 308.029 1004.9 60.801 1004.9 60.801l-64 13.473"/><path d="M1875.02 317.544s-378.39 158.829-512.99 465.528c-134.59 306.678 975.27 48.344 975.27 48.344l-62.47 14.101"/><path d="M1899.81 301.668s-370.71 161.926-507.93 467.268 945.64 35.896 945.64 35.896l-60.93 14.731"/><path d="M1925.6 286.538s-363.02 165.021-502.85 469.006 916.03 23.454 916.03 23.454l-59.41 15.36"/><path d="M1952.29 272.119s-355.32 168.113-497.75 470.741c-142.44 302.65 886.44 11.028 886.44 11.028l-57.88 15.985m-303.99-511.339s-347.61 171.18-492.64 472.493c-145.02 301.293 856.83-1.376 856.83-1.376l-56.34 16.614m-281.01-500.561s-339.91 174.267-487.5 474.22c-147.6 299.956 827.25-13.793 827.25-13.793l-54.82 17.24m-259.92-489.34s-332.2 177.351-482.34 475.944c-150.15 298.595 797.68-26.202 797.68-26.202l-53.29 17.867m-238.64-478.238s-324.47 180.41-477.16 477.664c-152.68 297.255 768.15-38.596 768.15-38.596l-51.76 18.493m-217.32-467.262s-316.75 183.487-471.94 479.381 738.6-50.988 738.6-50.988l-50.23 19.119m-195.89-456.371s-309.02 186.562-466.71 481.117c-157.68 294.556 709.07-63.349 709.07-63.349.01.004-48.7 19.744-48.7 19.744"/></g></svg>