<svg xmlns="http://www.w3.org/2000/svg" width="1920" height="901" fill="none" xmlns:v="https://vecta.io/nano"><style><![CDATA[.B{stroke:#1351d8}.C{stroke-opacity:.12}.D{stroke-width:.878}]]></style><mask id="A" maskUnits="userSpaceOnUse" x="0" y="0" width="1920" height="901" mask-type="alpha"><path d="M0 14.967C0 6.701 5.655 0 12.632 0H1907.37c6.97 0 12.63 6.701 12.63 14.967v871.066c0 8.266-5.66 14.967-12.63 14.967H12.632C5.655 901 0 894.299 0 886.033V14.967z" fill="#1c1c1c"/></mask><g mask="url(#A)" class="B C D"><path d="M1417.47 619.814s265.83-211.59 630.01-211.196c364.21.382-191.84 683.712-191.84 683.712.01-.03 30.82-38.6 30.82-38.6m-454.51-449.642s263.75-218.582 628.36-215.575c364.59 3.007-184.37 711.157-184.37 711.157.01-.02 30.42-39.99 30.42-39.99m-459.52-471.806s261.67-225.597 626.69-219.965-176.9 738.591-176.9 738.591c.01-.02 30.02-41.4 30.02-41.4m-464.36-494.164s259.61-232.615 625.07-224.36-169.45 766.024-169.45 766.024c.01-.02 29.62-42.8 29.62-42.8m-469.72-515.887s257.56-239.614 623.46-228.738-162.02 793.465-162.02 793.465c.02-.02 29.24-44.21 29.24-44.21m-475.08-537.624s255.54-246.638 621.91-233.143c366.38 13.502-154.6 820.917-154.6 820.917.01-.03 28.84-45.62 28.84-45.62m-480.5-559.358s253.53-253.665 620.41-237.543-147.2 848.371-147.2 848.371c.01-.03 28.44-47.03 28.44-47.03m-485.94-581.071s251.53-260.696 618.91-241.934c367.38 18.738-139.82 875.835-139.82 875.835.02-.03 28.06-48.43 28.06-48.43"/><path d="M1937.55 251.002s-440.04 133.236-555.23 444.379C1267.13 1006.5 2592.13 834.468 2592.13 834.468l-74.65 9.221"/><path d="M1958 236.144s-432.39 136.234-550.25 446.032c-117.87 309.795 1180.19 126.991 1180.19 126.991l-73.12 9.832"/><path d="M1978.61 218.781s-424.72 139.229-545.25 447.681c-120.54 308.45 1150.55 114.897 1150.55 114.897l-71.59 10.44"/><path d="M1999.43 201.244s-417.06 142.221-540.26 449.347 1120.91 102.812 1120.91 102.812l-70.06 11.05"/><path d="M2020.41 183.529s-409.37 145.186-535.23 450.986c-125.86 305.776 1091.28 90.737 1091.28 90.737l-68.54 11.657"/><path d="M2041.59 165.734s-401.7 148.171-530.2 452.621c-128.51 304.449 1061.66 78.67 1061.66 78.67l-67.01 12.266"/><path d="M2063.59 148.415s-394.02 151.151-525.15 454.252C1407.3 905.766 2570.51 669.28 2570.51 669.28l-65.48 12.872"/><path d="M2085.91 131.156s-386.34 154.128-520.09 455.877c-133.76 301.77 1002.46 54.584 1002.46 54.584l-63.95 13.48"/><path d="M2109.6 114.927s-378.65 157.079-515.02 457.52c-136.37 300.417 972.86 42.544 972.86 42.544l-62.42 14.085"/><path d="M2134.34 99.467s-370.96 160.048-509.92 459.135c-138.97 299.086 943.28 30.515 943.28 30.515l-60.9 14.691"/><path d="M2160.09 84.733s-363.27 163.014-504.81 460.747c-141.55 297.732 913.7 18.496 913.7 18.496l-59.36 15.297"/><path d="M2186.73 70.693s-355.57 165.976-499.67 462.354c-144.12 296.398 884.16 6.494 884.16 6.494l-57.84 15.899M2213.5 57.465s-347.85 168.912-494.52 463.977c-146.67 295.042 854.6-5.481 854.6-5.481l-56.31 16.503M2240.29 44.973s-340.14 171.865-489.34 465.572c-149.21 293.706 825.06-17.467 825.06-17.467l-54.79 17.105M2265.24 33.609s-332.42 174.815-484.13 467.163 795.53-29.441 795.53-29.441l-53.25 17.707m-234.8-465.776S1963.91 201 1809.69 492.01c-154.21 291.011 766.05-41.396 766.05-41.396l-51.73 18.307M2310.44 13.819s-316.95 180.679-473.63 470.329c-156.67 289.65 736.55-53.347 736.55-53.347l-50.19 18.909M2330.91 5.197s-309.21 183.615-468.33 471.924c-159.13 288.31 707.05-65.263 707.05-65.263.01.004-48.66 19.51-48.66 19.51"/></g></svg>